<svg width="1440" height="600" viewBox="0 0 1440 600" fill="none" xmlns="http://www.w3.org/2000/svg">
<g clip-path="url(#clip0)">
<rect width="1440" height="600" fill="#FEE27D"/>
<path d="M717 357C819.173 357 902 439.827 902 542H532C532 439.827 614.827 357 717 357Z" fill="#FFC729"/>
<rect width="1440" height="74" transform="matrix(-1 0 0 1 1440 526)" fill="#000B50"/>
<path d="M1440 526V417.61L1409.66 424.697C1382.83 430.964 1354.68 428.116 1329.65 416.604C1297.04 401.61 1259.54 401.476 1226.83 416.238L1219.09 419.732C1198 429.249 1174.46 431.923 1151.78 427.38C1120.75 421.166 1088.55 428.521 1063.3 447.588L1059.21 450.673C1035.97 468.224 1007.22 476.891 978.148 475.112L918.904 471.487C891.138 469.788 863.273 472.196 836.209 478.631L822.63 481.86C800.31 487.168 777.303 488.998 754.424 487.284C730.907 485.523 707.265 486.471 683.964 490.11L667.273 492.717C643.888 496.369 621.435 504.531 601.163 516.748L591 526H1440Z" fill="#266B73"/>
<path d="M-217 504H506V494.057C506 472.791 490.933 454.506 470.059 450.44C449.903 446.514 435.062 429.288 434.162 408.772L433.534 394.468C431.922 357.739 398.302 330.855 362.117 337.36C341.481 341.071 320.391 333.874 306.328 318.323L301.897 313.423C274.541 283.171 227.518 281.731 198.362 310.252L172.112 335.929C163.336 344.515 149.769 345.841 139.496 339.118C127.573 331.314 111.597 334.49 103.565 346.26L100.707 350.447C93.4144 361.134 80.3029 366.238 67.7047 363.294L25.2008 353.365C0.680862 347.636 -24.2534 361.129 -32.8706 384.789L-37.231 396.761C-44.422 416.504 -66.4794 426.432 -86.0264 418.722C-104.827 411.306 -126.117 420.192 -134.066 438.774L-140.721 454.329C-146.978 468.953 -161.352 478.438 -177.259 478.438H-191.438C-205.556 478.438 -217 489.883 -217 504Z" fill="#FCFCD1"/>
<path d="M943 384H1576V380.058C1576 361.559 1562.68 345.75 1544.44 342.618C1526.91 339.605 1513.82 324.831 1512.94 307.065L1512.54 299.114C1511.12 270.644 1485.32 249.697 1457.17 254.162L1448.6 255.522C1431.22 258.278 1413.56 252.663 1400.96 240.376L1397.1 236.602C1372.39 212.505 1333.36 211.313 1307.24 233.858L1283.93 253.971C1275.9 260.9 1264.36 261.99 1255.18 256.687C1244.38 250.451 1230.63 253.157 1223 263.022L1221.3 265.223C1214.73 273.714 1203.9 277.723 1193.39 275.556L1151.61 266.947C1131.78 262.859 1111.84 273.444 1104.11 292.163L1101.55 298.358C1094.45 315.556 1075.16 324.222 1057.59 318.107C1040.78 312.258 1022.25 319.921 1014.49 335.935L1010.46 344.243C1004.52 356.484 992.114 364.257 978.509 364.257H962.743C951.839 364.257 943 373.096 943 384Z" fill="#FCFCD1"/>
<path d="M-0.117126 551.785V421.482C52.3406 407.356 107.383 405.746 160.576 416.783L199.923 424.947L240.566 438.096C277.515 450.049 316.11 456.137 354.945 456.137C375.271 456.137 395.563 457.805 415.616 461.123L444.167 465.848C474.752 470.91 505.807 472.532 536.753 470.684C560.85 469.245 584.957 473.361 607.212 482.714L642.383 497.496L686.84 513.725C712.951 523.256 740.926 526.566 768.541 523.389C790.901 520.817 813.545 522.492 835.284 528.326L905.496 547.169C907.563 547.724 909 549.597 909 551.738C909 551.764 908.979 551.785 908.953 551.785H-0.117126Z" fill="#377982"/>
<path d="M1172.12 467C1172.23 490.872 1172.39 538.964 1172.12 540.355H1211.09L1172.12 467Z" fill="white"/>
<path d="M1169.61 489.891C1169.52 506.329 1169.4 539.446 1169.61 540.404H1140.44L1169.61 489.891Z" fill="white"/>
<path d="M1170.51 542.343V467" stroke="#C7C7C7" stroke-width="3.40118" stroke-linecap="round" stroke-linejoin="round"/>
<path d="M1220 542.066H1130.99C1134.89 548.528 1141.9 552.476 1149.45 552.476H1201.4C1208.99 552.476 1216.03 548.534 1220 542.066Z" fill="#FA7D29"/>
<path d="M-0.00384521 599.975V448.577L32.544 438.687C75.3091 425.693 121.275 428.088 162.458 445.455C177.499 451.798 193.291 456.19 209.447 458.522L252.963 464.804C268.342 467.024 283.003 472.758 295.808 481.561C312.666 493.151 332.644 499.356 353.102 499.356H362.103C380.308 499.356 398.311 503.177 414.947 510.57L415.887 510.988C432.286 518.277 449.974 522.221 467.917 522.591L538.427 524.045C564.443 524.582 589.816 532.233 611.791 546.169C632.878 559.541 657.108 567.137 682.055 568.195L722.215 569.898C747.192 570.957 771.686 577.127 794.184 588.025L803.083 592.336C805.954 593.726 807.777 596.635 807.777 599.825C807.777 599.908 807.71 599.975 807.628 599.975H-0.00384521Z" fill="#0C535A"/>
<path fill-rule="evenodd" clip-rule="evenodd" d="M499.38 497.725C502.082 492.342 509.767 492.342 512.469 497.725C514.435 501.642 519.378 502.967 523.039 500.557C528.07 497.246 534.725 501.091 534.374 507.104C534.118 511.479 537.737 515.098 542.112 514.843C548.125 514.492 551.966 521.148 548.656 526.18C546.247 529.842 547.571 534.786 551.488 536.753C554.17 538.1 555.516 540.684 555.525 543.272H456.324C456.334 540.684 457.68 538.1 460.362 536.753C464.279 534.786 465.602 529.842 463.194 526.18C459.884 521.148 463.725 514.492 469.738 514.843C474.113 515.098 477.731 511.479 477.476 507.104C477.125 501.091 483.779 497.246 488.811 500.557C492.471 502.967 497.414 501.642 499.38 497.725Z" fill="#183539"/>
<path fill-rule="evenodd" clip-rule="evenodd" d="M229.09 500.997C231.577 493.147 242.685 493.147 245.171 500.997C247.269 507.621 256.029 509.008 260.071 503.357C264.861 496.659 275.425 500.094 275.364 508.327C275.313 515.276 283.216 519.303 288.806 515.177C295.431 510.288 304.417 516.82 301.815 524.632C299.62 531.225 305.891 537.498 312.483 535.301C320.295 532.699 326.822 541.688 321.934 548.314C317.809 553.906 321.835 561.81 328.784 561.759C337.018 561.698 340.449 572.264 333.753 577.056C328.101 581.1 329.487 589.86 336.112 591.96C340.028 593.201 341.991 596.587 342 599.978H132.262C132.271 596.587 134.234 593.201 138.15 591.96C144.774 589.86 146.161 581.1 140.509 577.056C133.812 572.264 137.244 561.698 145.478 561.759C152.427 561.81 156.452 553.906 152.327 548.314C147.439 541.688 153.967 532.699 161.779 535.301C168.371 537.498 174.642 531.225 172.446 524.632C169.845 516.82 178.83 510.288 185.455 515.177C191.046 519.303 198.948 515.276 198.897 508.327C198.837 500.094 209.401 496.659 214.191 503.357C218.233 509.008 226.992 507.621 229.09 500.997Z" fill="#183539"/>
</g>
<defs>
<clipPath id="clip0">
<rect width="1440" height="600" fill="white"/>
</clipPath>
</defs>
</svg>
