<svg width="179" height="44" viewBox="0 0 179 44" fill="none" xmlns="http://www.w3.org/2000/svg">
<g clip-path="url(#clip0)">
<path d="M43.2324 24.5862C41.8316 36.6325 31.0165 45.2675 19.1471 43.847C7.2677 42.4112 -1.25779 31.4494 0.158105 19.4133C1.55894 7.36703 12.3689 -1.268 24.2484 0.152502C28.0241 0.605637 31.4835 2.02614 34.3705 4.14926L32.4475 6.30293L30.4291 8.56861L30.3136 8.70607C28.3404 7.37722 26.0408 6.4964 23.5404 6.19092C14.9547 5.16754 7.13213 11.4147 6.11289 20.121C5.08863 28.8375 11.2493 36.7598 19.8501 37.7933C28.4458 38.8269 36.2584 32.5797 37.2776 23.8632C37.5588 21.4855 37.3027 19.1587 36.5998 17.0153L37.2625 16.277L39.3964 13.8739L41.0332 12.0409C42.911 15.7882 43.7546 20.1057 43.2324 24.5862Z" fill="#4949D7"/>
<path d="M39.9362 10.1166L37.8475 12.4638L35.7137 14.8669L24.4166 27.5598C22.7196 29.464 19.8175 29.5913 17.9648 27.8398L13.4711 23.6598C12.2611 22.5142 12.1908 20.5897 13.3205 19.3575C14.4502 18.1305 16.3481 18.0592 17.5631 19.2048L20.9623 22.3513L31.9731 9.97916L33.9865 7.71348L35.9898 5.46307C37.5111 6.82248 38.8417 8.39064 39.9362 10.1166Z" fill="#3AD6DE"/>
<path d="M52.9203 29.6676L59.9144 14.1592C60.1604 13.6093 60.532 13.2834 61.1445 13.2834H61.2449C61.8374 13.2834 62.229 13.6093 62.4499 14.1592L69.444 29.6473C69.5194 29.8204 69.5696 29.9986 69.5696 30.1462C69.5696 30.6706 69.1528 31.0932 68.6357 31.0932C68.1687 31.0932 67.8474 30.7674 67.6767 30.3702L65.8792 26.348H56.4199L54.6224 30.4211C54.4517 30.8437 54.1303 31.0932 53.6885 31.0932C53.1964 31.0932 52.7998 30.691 52.7998 30.192C52.7948 30.0393 52.8199 29.8662 52.9203 29.6676ZM65.111 24.5457L61.1445 15.6051L57.178 24.5457H65.111Z" fill="#282A65"/>
<path d="M82.6791 30.1157C82.6791 30.6401 82.2824 31.0881 81.7452 31.0881C81.228 31.0881 80.8113 30.6655 80.8113 30.1157V28.7155C79.9477 30.1157 78.6423 31.2409 76.4532 31.2409C73.3754 31.2409 71.5779 29.1432 71.5779 26.068V18.8993C71.5779 18.3494 71.9745 17.9268 72.5118 17.9268C73.0289 17.9268 73.4708 18.3494 73.4708 18.8993V25.5945C73.4708 27.9925 74.7511 29.4894 76.9954 29.4894C79.1645 29.4894 80.8113 27.8653 80.8113 25.4417V18.8993C80.8113 18.3494 81.208 17.9268 81.7452 17.9268C82.2624 17.9268 82.6791 18.3494 82.6791 18.8993V30.1157Z" fill="#282A65"/>
<path d="M86.6206 27.5445V19.7495H85.5863C85.1445 19.7495 84.7478 19.3473 84.7478 18.8993C84.7478 18.4258 85.1445 18.049 85.5863 18.049H86.6206V14.9993C86.6206 14.4748 87.0173 14.0268 87.5545 14.0268C88.0716 14.0268 88.5135 14.4748 88.5135 14.9993V18.049H91.8122C92.2791 18.049 92.6758 18.4461 92.6758 18.8993C92.6758 19.3728 92.2791 19.7495 91.8122 19.7495H88.5135V27.295C88.5135 28.8683 89.3771 29.4436 90.6574 29.4436C91.3202 29.4436 91.6666 29.2705 91.8122 29.2705C92.254 29.2705 92.6256 29.6473 92.6256 30.0953C92.6256 30.4466 92.4047 30.7215 92.0833 30.8437C91.5411 31.0678 90.9486 31.195 90.2105 31.195C88.1721 31.19 86.6206 30.1666 86.6206 27.5445Z" fill="#282A65"/>
<path d="M93.7653 24.5711V24.5202C93.7653 20.8748 96.5719 17.7741 100.418 17.7741C104.234 17.7741 107.046 20.8239 107.046 24.4693V24.5202C107.046 28.1657 104.214 31.2664 100.373 31.2664C96.5468 31.2664 93.7653 28.2166 93.7653 24.5711ZM105.092 24.5711V24.5202C105.092 21.7454 103.049 19.4746 100.363 19.4746C97.6062 19.4746 95.7083 21.7454 95.7083 24.4693V24.5202C95.7083 27.2951 97.7267 29.5404 100.413 29.5404C103.174 29.5404 105.092 27.2951 105.092 24.5711Z" fill="#282A65"/>
<path d="M108.667 22.2749V22.224C108.667 17.2548 112.363 13.1816 117.66 13.1816C120.246 13.1816 121.993 13.8792 123.424 14.9535C123.82 15.2538 124.162 15.8037 124.162 16.4758C124.162 17.5246 123.323 18.3494 122.289 18.3494C121.772 18.3494 121.425 18.1509 121.154 17.9727C120.095 17.1733 118.985 16.7253 117.635 16.7253C114.728 16.7253 112.634 19.1742 112.634 22.168V22.2189C112.634 25.2177 114.677 27.7125 117.635 27.7125C119.236 27.7125 120.296 27.2136 121.38 26.3379C121.677 26.0884 122.068 25.9153 122.515 25.9153C123.474 25.9153 124.287 26.7146 124.287 27.6871C124.287 28.2879 123.991 28.7614 123.645 29.0618C122.093 30.4364 120.271 31.2613 117.514 31.2613C112.438 31.2663 108.667 27.295 108.667 22.2749Z" fill="#282A65"/>
<path d="M126.235 19.327C126.235 18.2781 127.074 17.4279 128.108 17.4279C129.143 17.4279 129.981 18.2781 129.981 19.327V19.9277C130.523 18.6294 131.407 17.4279 132.517 17.4279C133.676 17.4279 134.339 18.2018 134.339 19.276C134.339 20.274 133.697 20.8747 132.933 21.0479C131.035 21.4959 129.976 22.9724 129.976 25.6709V29.2196C129.976 30.2684 129.138 31.1187 128.103 31.1187C127.069 31.1187 126.23 30.2684 126.23 29.2196V19.327H126.235Z" fill="#282A65"/>
<path d="M141.434 31.2663C137.467 31.2663 134.535 28.4457 134.535 24.3471V24.2962C134.535 20.4725 137.221 17.326 141.062 17.326C145.471 17.326 147.419 20.997 147.419 23.7718C147.419 24.8715 146.655 25.5945 145.671 25.5945H138.256C138.627 27.3154 139.807 28.2166 141.484 28.2166C142.518 28.2166 143.382 27.8907 144.145 27.3154C144.416 27.1168 144.662 27.015 145.059 27.015C145.897 27.015 146.51 27.6667 146.51 28.5119C146.51 29.0108 146.289 29.3876 146.018 29.6371C144.853 30.6401 143.352 31.2663 141.434 31.2663ZM143.844 23.2219C143.623 21.5214 142.639 20.3758 141.062 20.3758C139.511 20.3758 138.502 21.501 138.205 23.2219H143.844Z" fill="#282A65"/>
<path d="M162.567 29.2145C162.567 30.2633 161.728 31.1136 160.694 31.1136C159.66 31.1136 158.821 30.2633 158.821 29.2145V29.0414C157.907 30.2888 156.652 31.2154 154.709 31.2154C151.631 31.2154 148.699 28.7664 148.699 24.2962V24.2453C148.699 19.775 151.581 17.326 154.709 17.326C156.702 17.326 157.937 18.2476 158.821 19.3219V14.4748C158.821 13.426 159.66 12.5757 160.694 12.5757C161.728 12.5757 162.567 13.426 162.567 14.4748V29.2145ZM152.445 24.2453V24.2962C152.445 26.5211 153.921 27.9925 155.673 27.9925C157.42 27.9925 158.876 26.5211 158.876 24.2962V24.2453C158.876 22.0203 157.425 20.5489 155.673 20.5489C153.921 20.5489 152.445 22 152.445 24.2453Z" fill="#282A65"/>
<path d="M164.886 14.3781C164.886 13.2784 165.8 12.6063 166.98 12.6063C168.165 12.6063 169.074 13.2784 169.074 14.3781V14.429C169.074 15.5288 168.165 16.2263 166.98 16.2263C165.8 16.2263 164.886 15.5288 164.886 14.429V14.3781ZM165.107 19.327C165.107 18.2782 165.946 17.4279 166.98 17.4279C168.014 17.4279 168.853 18.2782 168.853 19.327V29.2196C168.853 30.2684 168.014 31.1187 166.98 31.1187C165.946 31.1187 165.107 30.2684 165.107 29.2196V19.327Z" fill="#282A65"/>
<path d="M172.006 27.1677V20.8238H171.88C170.992 20.8238 170.279 20.1009 170.279 19.1997C170.279 18.2985 170.992 17.5755 171.88 17.5755H172.006V15.9004C172.006 14.8516 172.844 14.0013 173.879 14.0013C174.913 14.0013 175.751 14.8516 175.751 15.9004V17.5755H177.403C178.292 17.5755 179.005 18.2985 179.005 19.1997C179.005 20.1009 178.292 20.8238 177.403 20.8238H175.751V26.5415C175.751 27.4172 176.123 27.8398 176.956 27.8398C177.082 27.8398 177.328 27.8143 177.398 27.8143C178.237 27.8143 178.95 28.5119 178.95 29.3876C178.95 30.0648 178.508 30.6095 177.991 30.8132C177.303 31.0881 176.66 31.19 175.847 31.19C173.557 31.19 172.006 30.2633 172.006 27.1677Z" fill="#282A65"/>
</g>
<defs>
<clipPath id="clip0">
<rect width="179" height="44" fill="white"/>
</clipPath>
</defs>
</svg>
