<svg width="32" height="33" viewBox="0 0 32 33" fill="none" xmlns="http://www.w3.org/2000/svg">
<path d="M21.3204 6.83593C22.5188 6.14612 24.6461 3.55362 24.6461 2.5879C24.6461 2.01307 24.4159 1.46813 23.4478 1.46813C19.9678 1.46813 10.8045 7.37627 10.8045 11.1989C10.8045 11.7013 10.9979 12.2796 11.9258 12.2796C13.0079 12.2796 15.0189 12.0094 16.8366 12.0094C18.7694 12.0094 20.2775 12.859 21.051 14.0168L23.8714 13.1683C24.7992 12.8981 26.732 12.628 27.1188 12.628C27.5056 12.628 27.6599 12.8579 27.6599 13.1683C27.6491 13.5115 27.3841 13.793 27.0417 13.8248C26.5006 13.9018 25.0318 14.134 24.2582 14.3651C23.4846 14.5962 22.5959 14.8675 21.5909 15.1756C21.653 15.4282 21.6789 15.6883 21.6681 15.9482C21.6681 23.4394 12.8145 31.9734 8.09699 31.9734C5.584 31.9734 4 30.3133 4 28.2289C4 25.6801 5.97194 22.3599 11.2305 18.6143C14.014 16.6449 16.7986 15.4481 19.2333 14.5985C18.4598 13.6719 17.2614 13.5178 15.9076 13.5178C14.2062 13.5178 12.6211 13.8627 11.3456 13.8627C10.1852 13.8627 8.79345 13.0901 8.79345 11.43C8.79345 6.48643 18.9237 0 23.8737 0C25.1112 0 26.4638 0.689801 26.4638 2.0855C26.4638 4.05488 22.8676 7.56826 22.056 8.37993C21.515 8.88233 21.1282 9.22953 20.5871 9.22953C20.0461 9.22953 19.7364 8.92027 19.7364 8.37993C19.7364 7.83959 20.16 7.56941 21.3204 6.83593ZM19.8861 15.7941C17.4502 16.6437 14.6667 17.9187 11.9603 19.964C7.16915 23.5555 5.73826 26.1814 5.73826 27.9576C5.73826 29.5407 6.62811 30.4294 8.25125 30.4294C11.9626 30.4294 20.0046 22.5519 20.0046 16.6828C20.0033 16.3828 19.9634 16.0841 19.8861 15.7941Z" fill="#0F172A"/>
</svg>
